<?xml version="1.0" standalone="no"?>
<!DOCTYPE svg PUBLIC "-//W3C//DTD SVG 20010904//EN"
 "http://www.w3.org/TR/2001/REC-SVG-20010904/DTD/svg10.dtd">
<svg version="1.0" xmlns="http://www.w3.org/2000/svg"
 width="400.000000pt" height="400.000000pt" viewBox="0 0 400.000000 400.000000"
 preserveAspectRatio="xMidYMid meet">
<metadata>
Created by potrace 1.14, written by Peter Selinger 2001-2017
</metadata>
<g transform="translate(0.000000,400.000000) scale(0.100000,-0.100000)"
fill="#000000" stroke="none">
<path d="M790 3981 c-387 -82 -691 -388 -771 -776 -18 -85 -19 -157 -19 -1205
0 -1053 1 -1120 19 -1206 80 -388 387 -695 775 -775 86 -18 153 -19 1206 -19
1053 0 1120 1 1206 19 388 80 695 387 775 775 18 86 19 153 19 1206 0 1048 -1
1120 -19 1205 -80 391 -385 696 -776 776 -85 18 -156 19 -1210 18 -1038 0
-1126 -2 -1205 -18z m1225 -367 c16 -6 99 -97 705 -774 140 -157 429 -480 643
-719 214 -238 393 -444 399 -457 7 -16 8 -35 2 -56 -12 -42 -2 -35 -789 -545
-204 -132 -502 -326 -731 -475 -235 -153 -253 -163 -286 -155 -13 4 -403 260
-868 570 -607 404 -849 571 -858 590 -23 47 -6 80 112 214 61 70 352 403 646
738 293 336 563 644 600 685 36 41 113 129 170 194 165 189 173 196 208 196
17 0 38 -3 47 -6z"/>
<path d="M1798 3178 c-78 -90 -255 -291 -392 -448 -137 -157 -326 -373 -420
-480 -432 -490 -517 -591 -514 -600 1 -5 331 -228 732 -495 683 -455 731 -485
772 -485 48 0 34 -8 584 350 545 355 702 457 828 538 72 47 132 89 132 93 0 8
-300 346 -1135 1277 -361 403 -370 412 -407 412 -35 0 -43 -7 -180 -162z m822
-758 l0 -130 -255 0 -255 0 0 -720 0 -720 -135 0 -135 0 0 720 0 720 -255 0
-255 0 0 130 0 130 645 0 645 0 0 -130z"/>
</g>
</svg>
